#!OML:ASF F:\VICON\USERDATA\INSTALL\rory3\rory3.ASF
:FULLY-SPECIFIED
:DEGREES
861
root 7.05238 6.84984 -7.97411 185.31 66.6808 196.557
lowerback 43.8033 4.42604 4.24223
upperback 11.9497 10.6281 6.6436
thorax -7.61575 5.88164 0.335901
lowerneck -14.5411 -9.9311 -14.2147
upperneck 29.2557 -11.5414 7.62913
head 13.698 -5.36033 3.53303
rclavicle 9.38264e-014 7.95139e-015
rhumerus 19.1724 4.37206 -79.1886
rradius 22.242
rwrist 19.5612
rhand -40.7447 -8.80467
rfingers 7.12502
rthumb -13.6856 -38.3347
lclavicle 9.38264e-014 7.95139e-015
lhumerus -38.035 -40.9394 101.394
lradius 101.546
lwrist -28.8582
lhand -58.0237 25.1924
lfingers 7.12502
lthumb -30.2684 52.7307
rfemur -205.372 -80.1775 129.335
rtibia 161.2
rfoot -16.6774 27.7026
rtoes 7.70208
lfemur -117.022 75.9893 -38.2937
ltibia 160.809
lfoot -32.6522 -26.678
ltoes -26.0706
862
root 7.05293 6.8784 -7.96655 185.492 66.759 196.473
lowerback 43.5572 4.59319 4.05166
upperback 11.8987 10.7118 6.6749
thorax -7.6415 5.90663 0.435765
lowerneck -14.6051 -9.94128 -14.2378
upperneck 29.2607 -11.5611 7.68109
head 13.7223 -5.36389 3.5516
rclavicle -5.24792e-014 4.77083e-015
rhumerus 19.2509 3.93302 -79.2972
rradius 22.0289
rwrist 20.2552
rhand -39.8944 -9.07538
rfingers 7.12502
rthumb -12.866 -38.6588
lclavicle -5.24792e-014 4.77083e-015
lhumerus -38.0388 -40.963 101.384
lradius 101.343
lwrist -28.7979
lhand -57.8711 25.4217
lfingers 7.12502
lthumb -30.1229 52.9867
rfemur -204.126 -80.1842 128.812
rtibia 160.988
rfoot -18.1579 26.704
rtoes 3.39816
lfemur -116.88 76.0086 -38.2969
ltibia 160.566
lfoot -33.0023 -26.7892
ltoes -26.4018
863
root 7.05262 6.9124 -7.96468 185.777 66.7682 196.524
lowerback 43.3545 4.61844 4.07163
upperback 11.8358 10.7076 6.6073
thorax -7.63757 5.89726 0.366513
lowerneck -14.7498 -9.95868 -14.185
upperneck 29.3092 -11.6008 7.71764
head 13.7777 -5.36803 3.54586
rclavicle 1.28812e-013 1.17681e-013
rhumerus 19.3858 3.72479 -79.3497
rradius 21.8111
rwrist 20.6284
rhand -39.0398 -9.26648
rfingers 7.12502
rthumb -12.0421 -38.9
lclavicle 1.28812e-013 1.17681e-013
lhumerus -37.9239 -40.9921 101.16
lradius 101.114
lwrist -28.7525
lhand -57.6905 25.2664
lfingers 7.12502
lthumb -29.9505 52.8626
rfemur -200.969 -80.1808 126.371
rtibia 160.713
rfoot -18.7466 26.1141
rtoes 1.72577
lfemur -116.362 75.8201 -37.9793
ltibia 160.308
lfoot -33.3618 -26.7032
ltoes -27.2179
864
root 7.05189 6.94625 -7.96863 186.044 66.6648 196.528
lowerback 43.072 4.51362 4.21324
upperback 11.7918 10.5901 6.50778
thorax -7.56297 5.84265 0.260696
lowerneck -14.9216 -9.95856 -14.1336
upperneck 29.3216 -11.6 7.70915
head 13.8145 -5.36122 3.52791
rclavicle -1.145e-013 -5.40694e-014
rhumerus 19.5088 4.33089 -78.9892
rradius 21.8324
rwrist 20.1387
rhand -38.3189 -10.0672
rfingers 7.12502
rthumb -11.3469 -39.7402
lclavicle -1.145e-013 -5.40694e-014
lhumerus -37.7248 -40.9649 100.852
lradius 100.858
lwrist -28.602
lhand -57.5374 24.622
lfingers 7.12502
lthumb -29.8044 52.2445
rfemur -199.371 -80.1653 125.032
rtibia 160.483
rfoot -19.8833 24.9925
rtoes -2.97725
lfemur -115.684 75.0578 -37.4963
ltibia 160.086
lfoot -33.1827 -26.7337
ltoes -27.4154
865
root 7.05145 6.98065 -7.96929 186.163 66.6021 196.321
lowerback 42.7054 4.53911 4.14711
upperback 11.7781 10.548 6.50861
thorax -7.48344 5.81989 0.33454
lowerneck -14.9952 -9.96721 -14.223
upperneck 29.2367 -11.604 7.7694
head 13.8059 -5.36684 3.56069
rclavicle 4.92986e-014 -1.59028e-015
rhumerus 19.5119 4.93053 -78.4838
rradius 22.0366
rwrist 19.6113
rhand -37.7292 -10.9414
rfingers 7.12502
rthumb -10.7781 -40.6449
lclavicle 4.92986e-014 -1.59028e-015
lhumerus -37.5545 -41.0068 100.71
lradius 100.627
lwrist -28.318
lhand -57.5007 24.6531
lfingers 7.12502
lthumb -29.7695 52.2818
rfemur -199.839 -80.1929 125.664
rtibia 160.247
rfoot -20.2089 25.0747
rtoes -3.27442
lfemur -114.874 74.2943 -36.9536
ltibia 159.844
lfoot -33.0467 -26.82
ltoes -27.3058
866
root 7.04876 7.02861 -7.96711 186.55 66.6083 196.487
lowerback 42.5056 4.59559 4.16922
upperback 11.747 10.5992 6.5232
thorax -7.46088 5.83857 0.329
lowerneck -15.0763 -10.0201 -14.3167
upperneck 29.1813 -11.6798 7.86381
head 13.825 -5.39895 3.59429
rclavicle 1.09729e-013 0
rhumerus 19.5743 4.99873 -78.2473
rradius 21.9909
rwrist 19.2193
rhand -37.3474 -10.9156
rfingers 7.12502
rthumb -10.4098 -40.6379
lclavicle 1.09729e-013 0
lhumerus -37.3722 -41.2324 100.563
lradius 100.389
lwrist -27.8679
lhand -57.4822 25.0307
lfingers 7.12502
lthumb -29.7518 52.6626
rfemur -198.286 -80.3414 124.989
rtibia 159.855
rfoot -20.5692 25.013
rtoes -3.32467
lfemur -113.815 73.9408 -36.0405
ltibia 159.501
lfoot -32.8802 -27.3722
ltoes -25.8172
867
root 7.04307 7.08396 -7.9661 186.737 66.595 196.486
lowerback 42.4173 4.5662 4.20235
upperback 11.6872 10.5472 6.44308
thorax -7.4797 5.80813 0.252972
lowerneck -15.1434 -10.0196 -14.4012
upperneck 29.1124 -11.7051 8.02289
head 13.832 -5.401 3.66302
rclavicle -5.40694e-014 -6.36111e-014
rhumerus 19.695 4.89929 -78.2927
rradius 21.8758
rwrist 19.0707
rhand -36.9698 -10.5113
rfingers 7.12502
rthumb -10.0456 -40.2515
lclavicle -5.40694e-014 -6.36111e-014
lhumerus -37.1426 -41.2348 100.328
lradius 100.095
lwrist -27.5331
lhand -57.526 25.7682
lfingers 7.12502
lthumb -29.7936 53.3927
rfemur -193.57 -80.5293 120.97
rtibia 159.395
rfoot -20.7579 24.7324
rtoes -3.75147
lfemur -112.499 73.4551 -35.3263
ltibia 159.086
lfoot -32.9489 -27.231
ltoes -24.6656
868
root 7.03998 7.13696 -7.96366 186.938 66.58 196.331
lowerback 42.0532 4.5799 4.09467
upperback 11.6834 10.4701 6.41762
thorax -7.38777 5.76949 0.33546
lowerneck -15.1824 -9.97426 -14.54
upperneck 28.9395 -11.6485 8.16281
head 13.7792 -5.37903 3.74704
rclavicle -1.1291e-013 -7.95139e-014
rhumerus 19.7866 4.86346 -78.2576
rradius 22.0237
rwrist 19.357
rhand -36.3025 -10.8353
rfingers 7.12502
rthumb -9.40171 -40.6056
lclavicle -1.1291e-013 -7.95139e-014
lhumerus -36.8202 -40.9899 100.122
lradius 99.8233
lwrist -27.2964
lhand -57.4343 26.267
lfingers 7.12502
lthumb -29.7061 53.907
rfemur -186.968 -80.402 114.755
rtibia 158.994
rfoot -20.4971 24.5121
rtoes -3.6754
lfemur -111.785 72.7737 -35.4091
ltibia 158.667
lfoot -33.3367 -26.3397
ltoes -24.8995
869
root 7.03731 7.19622 -7.96099 187.273 66.6073 196.297
lowerback 41.6851 4.64531 4.02362
upperback 11.6703 10.4711 6.40306
thorax -7.30118 5.76583 0.379549
lowerneck -15.2236 -9.97305 -14.625
upperneck 28.785 -11.6572 8.26521
head 13.7371 -5.38323 3.79458
rclavicle 9.06458e-014 1.74931e-014
rhumerus 19.9043 4.75026 -78.161
rradius 22.0928
rwrist 19.7142
rhand -35.7424 -11.372
rfingers 7.12502
rthumb -8.8612 -41.1659
lclavicle 9.06458e-014 1.74931e-014
lhumerus -36.5976 -40.9009 99.9781
lradius 99.5964
lwrist -26.7973
lhand -57.2346 25.426
lfingers 7.12502
lthumb -29.5155 53.1
rfemur -182.398 -80.1642 110.726
rtibia 158.598
rfoot -20.2354 24.3556
rtoes -2.57588
lfemur -111.072 72.3225 -35.2845
ltibia 158.248
lfoot -33.6243 -25.8584
ltoes -24.8721
870
root 7.03052 7.259 -7.9589 187.49 66.6161 196.237
lowerback 41.5143 4.66435 4.04593
upperback 11.6185 10.4633 6.31485
thorax -7.28598 5.75677 0.289237
lowerneck -15.3237 -9.9837 -14.5441
upperneck 28.7611 -11.6841 8.25105
head 13.7439 -5.38733 3.76609
rclavicle 4.6118e-014 0
rhumerus 19.9906 4.5743 -78.1378
rradius 22.1263
rwrist 19.8181
rhand -35.5185 -11.5191
rfingers 7.12502
rthumb -8.64515 -41.3221
lclavicle 4.6118e-014 0
lhumerus -36.4009 -40.9348 99.7171
lradius 99.3927
lwrist -26.3303
lhand -57.1147 24.4007
lfingers 7.12502
lthumb -29.401 52.0947
rfemur -178.689 -80.0123 107.635
rtibia 158.152
rfoot -20.3559 23.996
rtoes -1.9877
lfemur -109.871 71.7813 -34.701
ltibia 157.805
lfoot -33.9662 -25.24
ltoes -25.2212
871
root 7.02321 7.32689 -7.95646 187.675 66.5721 196.18
lowerback 41.3505 4.64318 4.04171
upperback 11.6021 10.407 6.26088
thorax -7.24412 5.72909 0.26905
lowerneck -15.3967 -9.96097 -14.5567
upperneck 28.6973 -11.6521 8.2777
head 13.7301 -5.37263 3.78069
rclavicle -6.52014e-014 3.33958e-014
rhumerus 20.0836 4.69917 -77.9226
rradius 22.2666
rwrist 19.5887
rhand -35.1941 -11.4477
rfingers 7.12502
rthumb -8.33212 -41.2634
lclavicle -6.52014e-014 3.33958e-014
lhumerus -36.123 -40.7896 99.4626
lradius 99.1449
lwrist -26.0247
lhand -56.7829 23.8349
lfingers 7.12502
lthumb -29.0841 51.5841
rfemur -173.977 -79.9011 103.53
rtibia 157.634
rfoot -20.5917 23.5361
rtoes -2.06349
lfemur -108.377 70.943 -33.9178
ltibia 157.289
lfoot -34.3089 -24.4551
ltoes -25.387
872
root 7.01426 7.40583 -7.95706 188.243 66.4983 196.428
lowerback 41.0956 4.59419 4.15615
upperback 11.5584 10.3562 6.2355
thorax -7.19311 5.70199 0.222864
lowerneck -15.432 -9.94629 -14.5967
upperneck 28.617 -11.6486 8.36862
head 13.7125 -5.36614 3.82114
rclavicle -6.04305e-014 -1.27222e-014
rhumerus 20.1646 4.63546 -77.7467
rradius 22.3777
rwrist 19.74
rhand -34.8012 -11.3424
rfingers 7.12502
rthumb -7.95287 -41.1728
lclavicle -6.04305e-014 -1.27222e-014
lhumerus -35.922 -40.6377 99.3008
lradius 98.8803
lwrist -25.8637
lhand -56.3239 24.1391
lfingers 7.12502
lthumb -28.6457 51.9632
rfemur -166.884 -79.58 97.2219
rtibia 157.028
rfoot -20.6288 23.0686
rtoes -2.22221
lfemur -107.624 69.9909 -33.5496
ltibia 156.716
lfoot -33.9902 -24.6548
ltoes -22.8655
873
root 7.001 7.49168 -7.95958 188.563 66.3984 196.437
lowerback 40.9591 4.51804 4.34862
upperback 11.4638 10.2979 6.10763
thorax -7.20144 5.66877 0.0235427
lowerneck -15.4716 -9.99632 -14.4873
upperneck 28.5379 -11.7714 8.42559
head 13.6996 -5.4025 3.79869
rclavicle -1.90833e-014 -3.02153e-014
rhumerus 20.0857 4.58629 -77.5264
rradius 22.7348
rwrist 19.77
rhand -34.4695 -11.5452
rfingers 7.12502
rthumb -7.63272 -41.3875
lclavicle -1.90833e-014 -3.02153e-014
lhumerus -35.8442 -40.6936 99.2061
lradius 98.6022
lwrist -25.6824
lhand -56.149 24.8584
lfingers 7.12502
lthumb -28.4786 52.7106
rfemur -160.692 -79.2558 91.7779
rtibia 156.335
rfoot -20.6974 22.7526
rtoes -2.30333
lfemur -106.581 68.791 -33.0191
ltibia 156.048
lfoot -33.5469 -24.8689
ltoes -21.4795
874
root 6.98869 7.58357 -7.9596 188.464 66.3344 196.018
lowerback 40.8312 4.48316 4.32836
upperback 11.396 10.2035 5.96146
thorax -7.21103 5.61827 -0.0759783
lowerneck -15.5789 -10.0607 -14.3542
upperneck 28.49 -11.8806 8.37281
head 13.7021 -5.44264 3.72865
rclavicle 3.81667e-014 2.22639e-014
rhumerus 20.0266 4.9239 -77.1317
rradius 23.1281
rwrist 19.3064
rhand -34.2231 -11.4495
rfingers 7.12502
rthumb -7.39488 -41.3002
lclavicle 3.81667e-014 2.22639e-014
lhumerus -35.795 -40.7878 99.1582
lradius 98.3338
lwrist -25.2736
lhand -56.233 25.1937
lfingers 7.12502
lthumb -28.5589 53.0325
rfemur -156.071 -78.9796 87.7078
rtibia 155.596
rfoot -21.018 22.5309
rtoes -3.02278
lfemur -104.299 66.9981 -31.6079
ltibia 155.258
lfoot -33.4477 -24.3902
ltoes -22.9744
